<svg version="1.2" xmlns="http://www.w3.org/2000/svg" viewBox="0 0 275 313" width="800" height="911">
	<title>799415_18205-NRTUCR-svg</title>
	<style>
		tspan { white-space:pre } 
		.s0 { fill: #fe1319 } 
		.s1 { fill: #062d4f } 
		.s2 { fill: #ffffff } 
		.s3 { fill: #909ba4 } 
		.s4 { fill: #6b6966 } 
		.s5 { fill: none;stroke: #062d4f;stroke-miterlimit:10;stroke-width: 10 } 
		.s6 { fill: none;stroke: #ffffff;stroke-miterlimit:10;stroke-width: 6 } 
		.t7 { font-size: 27px;fill: #ffffff;font-weight: bold;font-family: "' Aller" } 
		.s8 { fill: none } 
		.t9 { font-size: 15px;fill: #ffffff;font-family: "' Antonio" } 
		.t10 { font-size: 27px;fill: #062d4f;font-weight: bold;font-family: "' Aller" } 
		.t11 { font-size: 11px;fill: #fe1319;font-weight: bold;font-family: "' Aller" } 
		.t12 { font-size: 28px;fill: #ffffff;font-weight: bold;font-family: "' Aller" } 
	</style>
	<g id="background">
	</g>
	<g id="objects">
		<path class="s0" d="m626.1 189.1c-6.8 12.5-31.8 52.5-89.7 92.5-8 5.5-16.6 11-25.8 16.5q-0.1 0-0.5 0-0.3 0-0.4 0c-10.3-6.1-19.8-12.3-28.6-18.4-55.9-39.4-80.2-78.3-86.9-90.6-0.5-0.8-1-3.4-0.8-4.8l6.8-63.4h219.9l6.9 63.4c0.1 1.4-0.4 4-0.9 4.8z"/>
		<path fill-rule="evenodd" class="s1" d="m643.4 192.6c-9.1 16.6-44.2 72.3-129.6 122.4-2.6 1.6-6.9 1.6-9.5 0.1-85.4-50.2-120.5-105.9-129.6-122.5-1.5-2.7-2.3-7.4-2-10.4l7.4-68.3 5.8-53.4c0.3-3 2.9-6.3 5.8-7.4 19.9-7.6 91.9-34.8 112.1-41.5 2.9-1 7.6-1 10.5 0 20.2 6.7 92.1 33.9 112.1 41.5 2.9 1.1 5.4 4.4 5.8 7.4l5.7 53.4 7.4 68.3c0.4 3-0.4 7.7-1.9 10.4zm-6.8-9.5l-7.6-69.2h-240l-7.5 69.2c-0.1 1.5 0.4 4.3 0.9 5.2 8.5 15.6 42.7 69.9 126.2 119q0.1 0.1 0.4 0.1 0.4 0 0.5-0.1c83.5-49.1 117.7-103.4 126.2-119 0.5-0.9 1-3.7 0.9-5.2z"/>
		<path class="s2" d="m536.4 119v164.1c-8 5.5-16.6 11.1-25.8 16.6q-0.1 0-0.5 0-0.3 0-0.4 0c-10.3-6.2-19.8-12.4-28.6-18.6v-162.1z"/>
		<path class="s2" d="m566.7 207.5c-6.2 31.9-37 52.6-68.9 46.4-31.9-6.2-52.7-37.1-46.5-69 6.3-31.9 37.1-52.6 69-46.4 31.9 6.3 52.6 37.1 46.4 69z"/>
		<path class="s3" d="m207.3 145c0 38.9-31 70.5-69.2 70.5-21.2 0-40.2-9.7-52.9-25 9.1 4.8 19.4 7.5 30.4 7.5 35.9 0 65-29.1 65-65 0-23.7-12.6-44.4-31.6-55.8q-6.4-1.3-13.2-1.3c-12.5 0-24.2 3.4-34.3 9.2 10.6-6.7 23.2-10.6 36.6-10.6 38.2 0 69.2 31.6 69.2 70.5z"/>
		<path class="s1" d="m273 136.5h-56.7c-2.2-19.6-11.6-37.9-26.4-51-7.6-6.7-16.5-12.1-26.6-15.6-28.3-9.8-58.5-2.7-79.4 16-7.1 6.3-13.1 14-17.7 22.8q0 0.1-0.1 0.3-2.4 4.8-4.3 10c-2 5.8-3.3 11.7-3.9 17.5h-56.7c0-75 60.8-135.9 135.9-135.9 75.1 0 135.9 60.9 135.9 135.9z"/>
		<path class="s0" d="m207.3 164.1q-0.2 1-0.4 2c-11.8 58.2-39.9 79.4-40.4 80.5 0.2-0.8 0.8-18.3-15.3-7.7-17.4 11.4-11.8 41.1-11.7 41.8q-1.3-1.3-2.4-2.6-0.4-0.5-0.7-0.9c-22.7-26.9-12.8-48.8-25.3-50.7-9.1-1.4-6.1 14-6.1 14-30.9-32.4-38.5-73.1-39.6-82.3-0.2-1.1-0.2-1.7-0.2-1.8 4.4 25.2 22 47.5 48 56.5 7.6 2.7 15.5 4 23.2 4q0.3 0 0.7 0c30.2 0 58.5-18.9 69-49 0.4-1.3 1-2.5 1.2-3.8z"/>
		<g style="opacity: .6">
			<g>
				<g>
					<path fill-rule="evenodd" class="s4" d="m210.7 708.3v-0.3q-0.5 0.6-1 1-0.5 0.4-1.1 0.6-0.6 0.2-1.3 0.2-0.9 0-1.7-0.4-0.8-0.4-1.4-1.2-0.6-0.7-0.9-1.7-0.3-1-0.3-2.1 0-2.4 1.2-3.8 1.2-1.4 3.2-1.4 1.1 0 1.8 0.4 0.8 0.4 1.5 1.2v-3.8q0-0.8 0.4-1.2 0.3-0.4 0.9-0.4 0.6 0 0.9 0.3 0.3 0.4 0.3 1.1v11.5q0 0.7-0.3 1.1-0.4 0.4-0.9 0.4-0.6 0-0.9-0.4-0.4-0.4-0.4-1.1zm-5.1-3.8q0 1 0.4 1.8 0.3 0.7 0.9 1.1 0.5 0.4 1.2 0.4 0.7 0 1.3-0.4 0.5-0.4 0.9-1.1 0.3-0.7 0.3-1.8 0-1.1-0.3-1.8-0.4-0.8-0.9-1.1-0.6-0.4-1.3-0.4-0.7 0-1.3 0.4-0.5 0.4-0.8 1.1-0.4 0.8-0.4 1.8z"/>
					<path fill-rule="evenodd" class="s4" d="m222.2 705.1h-5.1q0 0.9 0.4 1.6 0.3 0.7 0.9 1 0.6 0.3 1.3 0.3 0.4 0 0.8-0.1 0.4-0.1 0.8-0.3 0.3-0.2 0.6-0.5 0.3-0.3 0.8-0.7 0.2-0.2 0.6-0.2 0.4 0 0.6 0.2 0.3 0.2 0.3 0.6 0 0.4-0.3 0.9-0.3 0.4-0.8 0.9-0.6 0.4-1.4 0.7-0.9 0.3-2 0.3-2.5 0-3.9-1.5-1.3-1.4-1.3-3.8 0-1.2 0.3-2.2 0.3-0.9 1-1.6 0.7-0.7 1.6-1.1 1-0.4 2.1-0.4 1.6 0 2.6 0.6 1.1 0.7 1.7 1.7 0.5 1 0.5 2.1 0 1-0.5 1.2-0.6 0.3-1.6 0.3zm-5.1-1.4h4.7q-0.1-1.4-0.7-2-0.6-0.7-1.6-0.7-1 0-1.6 0.7-0.7 0.6-0.8 2z"/>
					<path class="s4" d="m234 706.4q0 1-0.5 1.8-0.5 0.8-1.6 1.2-1 0.4-2.5 0.4-1.3 0-2.3-0.5-1-0.4-1.5-1-0.5-0.7-0.5-1.3 0-0.4 0.3-0.7 0.3-0.4 0.8-0.4 0.4 0 0.6 0.2 0.2 0.2 0.4 0.6 0.4 0.7 1 1 0.5 0.4 1.5 0.4 0.8 0 1.3-0.4 0.5-0.3 0.5-0.8 0-0.6-0.5-1-0.6-0.3-1.8-0.6-1.3-0.3-2.1-0.7-0.9-0.3-1.4-0.9-0.5-0.6-0.5-1.5 0-0.8 0.5-1.5 0.5-0.7 1.4-1.1 0.9-0.4 2.1-0.4 1.1 0 1.9 0.2 0.8 0.2 1.3 0.6 0.5 0.3 0.8 0.8 0.3 0.4 0.3 0.8 0 0.5-0.3 0.7-0.3 0.3-0.9 0.3-0.4 0-0.6-0.2-0.3-0.2-0.7-0.7-0.3-0.4-0.7-0.6-0.4-0.2-1.1-0.2-0.7 0-1.1 0.3-0.5 0.3-0.5 0.7 0 0.4 0.4 0.7 0.3 0.3 0.9 0.4 0.6 0.2 1.6 0.4 1.2 0.3 1.9 0.7 0.8 0.4 1.2 1 0.4 0.6 0.4 1.3z"/>
					<path class="s4" d="m236.6 698q-0.5 0-0.9-0.3-0.4-0.3-0.4-1 0-0.5 0.4-0.9 0.4-0.3 0.9-0.3 0.6 0 0.9 0.3 0.4 0.3 0.4 0.9 0 0.6-0.4 1-0.3 0.3-0.9 0.3zm1.3 2.7v7.5q0 0.8-0.3 1.2-0.4 0.4-1 0.4-0.6 0-0.9-0.4-0.4-0.5-0.4-1.2v-7.4q0-0.8 0.4-1.2 0.3-0.4 0.9-0.4 0.6 0 1 0.4 0.3 0.4 0.3 1.1z"/>
					<path fill-rule="evenodd" class="s4" d="m249.3 701.1v7.6q0 1.2-0.3 2.2-0.3 0.9-0.9 1.5-0.6 0.6-1.6 0.9-0.9 0.3-2.4 0.3-1.3 0-2.4-0.4-1.1-0.3-1.6-0.9-0.6-0.6-0.6-1.3 0-0.4 0.3-0.7 0.4-0.3 0.8-0.3 0.6 0 1 0.5 0.2 0.2 0.4 0.5 0.3 0.3 0.5 0.4 0.3 0.2 0.7 0.3 0.4 0.1 0.9 0.1 1 0 1.5-0.3 0.6-0.3 0.8-0.8 0.2-0.5 0.3-1 0-0.6 0-1.9-0.6 0.9-1.4 1.3-0.8 0.4-1.8 0.4-1.3 0-2.3-0.6-1-0.7-1.5-1.9-0.5-1.2-0.5-2.8 0-1.1 0.3-2.1 0.3-0.9 0.9-1.6 0.6-0.6 1.4-0.9 0.7-0.4 1.6-0.4 1.1 0 2 0.5 0.8 0.4 1.5 1.3v-0.4q0-0.6 0.3-1 0.3-0.4 0.8-0.4 0.8 0 1 0.5 0.3 0.5 0.3 1.4zm-7.5 3.3q0 1.6 0.7 2.4 0.7 0.8 1.7 0.8 0.7 0 1.3-0.3 0.5-0.4 0.9-1.1 0.4-0.7 0.4-1.7 0-1.6-0.7-2.5-0.7-0.8-1.9-0.8-1.1 0-1.8 0.8-0.6 0.8-0.6 2.4z"/>
					<path class="s4" d="m253.4 700.7v0.3q0.7-0.9 1.5-1.4 0.8-0.4 1.9-0.4 1 0 1.8 0.5 0.8 0.4 1.2 1.2 0.3 0.5 0.3 1.1 0.1 0.5 0.1 1.4v4.8q0 0.8-0.3 1.2-0.4 0.4-1 0.4-0.5 0-0.9-0.4-0.4-0.5-0.4-1.2v-4.3q0-1.3-0.3-2-0.4-0.7-1.4-0.7-0.7 0-1.3 0.4-0.6 0.5-0.8 1.2-0.2 0.6-0.2 2.1v3.3q0 0.8-0.4 1.2-0.4 0.4-0.9 0.4-0.6 0-1-0.4-0.3-0.5-0.3-1.2v-7.5q0-0.7 0.3-1.1 0.3-0.4 0.9-0.4 0.3 0 0.6 0.2 0.3 0.1 0.4 0.5 0.2 0.3 0.2 0.8z"/>
					<path fill-rule="evenodd" class="s4" d="m269.2 705.1h-5.1q0 0.9 0.4 1.6 0.3 0.7 0.9 1 0.6 0.3 1.3 0.3 0.4 0 0.8-0.1 0.4-0.1 0.8-0.3 0.3-0.2 0.6-0.5 0.3-0.3 0.8-0.7 0.2-0.2 0.6-0.2 0.4 0 0.6 0.2 0.3 0.2 0.3 0.6 0 0.4-0.3 0.9-0.3 0.4-0.8 0.9-0.6 0.4-1.4 0.7-0.9 0.3-2 0.3-2.5 0-3.9-1.5-1.3-1.4-1.3-3.8 0-1.2 0.3-2.2 0.3-0.9 1-1.6 0.7-0.7 1.6-1.1 1-0.4 2.1-0.4 1.6 0 2.6 0.6 1.1 0.7 1.7 1.7 0.5 1 0.5 2.1 0 1-0.5 1.2-0.6 0.3-1.6 0.3zm-5.1-1.4h4.7q-0.1-1.4-0.7-2-0.6-0.7-1.6-0.7-1 0-1.6 0.7-0.7 0.6-0.8 2z"/>
					<path fill-rule="evenodd" class="s4" d="m279.8 708.3v-0.3q-0.6 0.6-1.1 1-0.5 0.4-1.1 0.6-0.6 0.2-1.3 0.2-0.9 0-1.7-0.4-0.8-0.4-1.4-1.2-0.6-0.7-0.8-1.7-0.3-1-0.3-2.1 0-2.4 1.1-3.8 1.2-1.4 3.2-1.4 1.1 0 1.9 0.4 0.7 0.4 1.5 1.2v-3.8q0-0.8 0.3-1.2 0.3-0.4 0.9-0.4 0.6 0 0.9 0.3 0.3 0.4 0.3 1.1v11.5q0 0.7-0.3 1.1-0.4 0.4-0.9 0.4-0.6 0-0.9-0.4-0.3-0.4-0.3-1.1zm-5.1-3.8q0 1 0.3 1.8 0.3 0.7 0.9 1.1 0.5 0.4 1.2 0.4 0.7 0 1.3-0.4 0.5-0.4 0.9-1.1 0.3-0.7 0.3-1.8 0-1.1-0.3-1.8-0.4-0.8-0.9-1.1-0.6-0.4-1.3-0.4-0.7 0-1.3 0.4-0.5 0.4-0.8 1.1-0.3 0.8-0.3 1.8z"/>
					<path fill-rule="evenodd" class="s4" d="m290.4 696.8v4q0.7-0.8 1.4-1.2 0.8-0.4 1.9-0.4 1.3 0 2.3 0.7 1 0.6 1.5 1.7 0.5 1.2 0.5 2.8 0 1.2-0.3 2.1-0.3 1-0.8 1.8-0.6 0.7-1.4 1.1-0.8 0.4-1.8 0.4-0.6 0-1.1-0.2-0.6-0.1-0.9-0.4-0.4-0.2-0.7-0.4-0.2-0.3-0.6-0.8v0.3q0 0.7-0.4 1.1-0.3 0.4-0.9 0.4-0.5 0-0.9-0.4-0.3-0.4-0.3-1.1v-11.3q0-0.8 0.3-1.2 0.3-0.4 0.9-0.4 0.6 0 0.9 0.4 0.4 0.3 0.4 1zm0.1 7.8q0 1.5 0.7 2.3 0.7 0.9 1.8 0.9 1 0 1.7-0.9 0.7-0.8 0.7-2.4 0-1.1-0.3-1.8-0.3-0.7-0.8-1.1-0.5-0.4-1.3-0.4-0.7 0-1.3 0.4-0.6 0.4-0.9 1.1-0.3 0.8-0.3 1.9z"/>
					<path class="s4" d="m301.4 710.1l0.2-0.6-3.2-8q-0.3-0.7-0.3-1 0-0.4 0.2-0.7 0.2-0.2 0.5-0.4 0.3-0.2 0.6-0.2 0.6 0 0.9 0.4 0.2 0.3 0.5 1l2.2 6.4 2-6q0.3-0.7 0.5-1.1 0.2-0.4 0.4-0.5 0.2-0.2 0.6-0.2 0.3 0 0.6 0.2 0.3 0.1 0.4 0.4 0.2 0.3 0.2 0.6-0.1 0.1-0.2 0.5 0 0.3-0.2 0.6l-3.3 8.9q-0.5 1.2-0.9 1.8-0.4 0.7-1.1 1.1-0.7 0.3-1.9 0.3-1.1 0-1.7-0.2-0.5-0.3-0.5-0.9 0-0.5 0.2-0.7 0.3-0.3 0.8-0.3 0.2 0 0.4 0.1 0.3 0 0.5 0 0.4 0 0.7-0.1 0.2-0.1 0.4-0.4 0.2-0.4 0.5-1z"/>
				</g>
				<g>
					<path class="s4" d="m339 699.4h0.6v-0.7q0-1.3 0.3-2 0.3-0.7 1-1 0.8-0.3 2.1-0.3 2.2 0 2.2 1.1 0 0.3-0.2 0.6-0.3 0.2-0.6 0.2-0.1 0-0.5 0-0.4-0.1-0.6-0.1-0.7 0-0.9 0.4-0.2 0.5-0.2 1.2v0.6h0.6q1.5 0 1.5 0.9 0 0.7-0.4 0.8-0.4 0.2-1.1 0.2h-0.6v6.9q0 0.8-0.4 1.2-0.4 0.4-0.9 0.4-0.6 0-1-0.4-0.3-0.4-0.3-1.2v-6.9h-0.7q-0.6 0-0.9-0.2-0.3-0.3-0.3-0.7 0-1 1.3-1z"/>
					<path class="s4" d="m347.4 706v2.2q0 0.8-0.3 1.2-0.4 0.4-1 0.4-0.5 0-0.9-0.4-0.3-0.4-0.3-1.2v-7.2q0-1.8 1.2-1.8 0.7 0 0.9 0.4 0.3 0.4 0.4 1.2 0.4-0.8 0.9-1.2 0.5-0.4 1.3-0.4 0.8 0 1.6 0.4 0.8 0.4 0.8 1.1 0 0.5-0.3 0.8-0.4 0.3-0.8 0.3-0.1 0-0.6-0.2-0.6-0.1-1-0.2-0.6 0.1-0.9 0.3-0.4 0.4-0.6 0.9-0.2 0.6-0.3 1.4-0.1 0.9-0.1 2z"/>
					<path fill-rule="evenodd" class="s4" d="m359.4 705.1h-5.1q0 0.9 0.4 1.6 0.3 0.7 0.9 1 0.5 0.3 1.2 0.3 0.5 0 0.9-0.1 0.4-0.1 0.7-0.3 0.4-0.2 0.7-0.5 0.3-0.3 0.8-0.7 0.2-0.2 0.6-0.2 0.4 0 0.6 0.2 0.3 0.2 0.3 0.6 0 0.4-0.3 0.9-0.3 0.4-0.8 0.9-0.6 0.4-1.4 0.7-0.9 0.3-2 0.3-2.5 0-3.9-1.5-1.4-1.4-1.4-3.8 0-1.2 0.4-2.2 0.3-0.9 1-1.7 0.6-0.7 1.6-1 1-0.4 2.1-0.4 1.5 0 2.6 0.6 1.1 0.7 1.7 1.7 0.5 1 0.5 2.1 0 0.9-0.6 1.2-0.5 0.3-1.5 0.3zm-5.1-1.4h4.7q-0.1-1.4-0.7-2-0.6-0.7-1.7-0.7-0.9 0-1.5 0.7-0.7 0.6-0.8 2z"/>
					<path fill-rule="evenodd" class="s4" d="m370.2 705.1h-5.1q0 0.9 0.3 1.6 0.4 0.7 1 1 0.5 0.3 1.2 0.3 0.5 0 0.9-0.1 0.4-0.1 0.7-0.3 0.4-0.2 0.7-0.5 0.3-0.3 0.8-0.7 0.2-0.2 0.5-0.2 0.4 0 0.7 0.2 0.2 0.2 0.2 0.6 0 0.4-0.2 0.9-0.3 0.4-0.9 0.9-0.5 0.4-1.4 0.7-0.8 0.3-1.9 0.3-2.5 0-3.9-1.5-1.4-1.4-1.4-3.8 0-1.2 0.4-2.2 0.3-0.9 1-1.7 0.6-0.7 1.6-1 0.9-0.4 2.1-0.4 1.5 0 2.6 0.6 1.1 0.7 1.6 1.7 0.6 1 0.6 2.1 0 0.9-0.6 1.2-0.5 0.3-1.5 0.3zm-5.1-1.4h4.7q-0.1-1.4-0.7-2-0.7-0.7-1.7-0.7-0.9 0-1.6 0.7-0.6 0.6-0.7 2z"/>
					<path fill-rule="evenodd" class="s4" d="m375.8 700.7v0.3q0.8-0.9 1.6-1.3 0.7-0.5 1.7-0.5 1.2 0 2.2 0.7 1.1 0.6 1.6 1.8 0.6 1.1 0.6 2.8 0 1.2-0.3 2.2-0.3 1-0.9 1.7-0.6 0.6-1.4 1-0.8 0.4-1.8 0.4-1.1 0-1.8-0.5-0.8-0.4-1.5-1.3v3.9q0 1.7-1.2 1.7-0.7 0-1-0.4-0.2-0.5-0.2-1.3v-11.2q0-0.7 0.3-1.1 0.3-0.4 0.9-0.4 0.5 0 0.9 0.4 0.3 0.4 0.3 1.1zm5.1 3.7q0-1-0.3-1.7-0.3-0.8-0.9-1.1-0.5-0.4-1.2-0.4-1.1 0-1.8 0.8-0.7 0.8-0.7 2.5 0 1.5 0.7 2.4 0.7 0.9 1.8 0.9 0.7 0 1.2-0.4 0.6-0.4 0.9-1.1 0.3-0.8 0.3-1.9z"/>
					<path class="s4" d="m386.1 698q-0.5 0-0.9-0.3-0.4-0.4-0.4-1 0-0.5 0.4-0.9 0.4-0.3 0.9-0.3 0.5 0 0.9 0.3 0.4 0.3 0.4 0.9 0 0.6-0.4 1-0.3 0.3-0.9 0.3zm1.3 2.7v7.5q0 0.8-0.3 1.2-0.4 0.4-1 0.4-0.6 0-0.9-0.4-0.4-0.5-0.4-1.2v-7.4q0-0.8 0.4-1.2 0.3-0.4 0.9-0.4 0.6 0 1 0.4 0.3 0.4 0.3 1.1z"/>
					<path class="s4" d="m395.8 708.6l-2.3-3.8-1.4 1.3v2.1q0 0.8-0.4 1.2-0.4 0.4-0.9 0.4-0.6 0-1-0.4-0.3-0.4-0.3-1.2v-11.1q0-0.8 0.3-1.3 0.4-0.4 1-0.4 0.6 0 0.9 0.4 0.4 0.4 0.4 1.2v6.3l2.9-3.1q0.5-0.6 0.8-0.8 0.3-0.2 0.7-0.2 0.5 0 0.8 0.3 0.4 0.3 0.4 0.8 0 0.6-1.1 1.5l-1.4 1.3 2.7 4.2q0.3 0.4 0.4 0.7 0.1 0.2 0.1 0.4 0 0.6-0.3 1-0.3 0.4-0.9 0.4-0.5 0-0.7-0.3-0.3-0.3-0.7-0.9z"/>
					<path class="s4" d="m401.4 709.8q-0.6 0-1-0.4-0.4-0.4-0.4-1.1 0-0.6 0.4-1 0.4-0.4 1-0.4 0.6 0 1 0.4 0.4 0.4 0.4 1 0 0.7-0.4 1.1-0.4 0.4-1 0.4z"/>
					<path class="s4" d="m414.3 706.6q0 0.4-0.3 1-0.3 0.5-0.9 1-0.6 0.5-1.5 0.8-0.9 0.3-2 0.3-2.4 0-3.7-1.4-1.4-1.4-1.4-3.7 0-1.6 0.6-2.8 0.6-1.3 1.8-1.9 1.2-0.7 2.8-0.7 1 0 1.9 0.3 0.8 0.3 1.4 0.8 0.6 0.4 0.9 0.9 0.3 0.6 0.3 1 0 0.5-0.4 0.8-0.3 0.3-0.8 0.3-0.3 0-0.5-0.1-0.3-0.2-0.5-0.6-0.5-0.7-1-1-0.5-0.4-1.3-0.4-1.2 0-1.9 0.9-0.7 0.9-0.7 2.4 0 0.8 0.2 1.4 0.2 0.6 0.5 1 0.4 0.5 0.8 0.7 0.5 0.2 1.1 0.2 0.8 0 1.3-0.3 0.6-0.4 1-1.1 0.3-0.5 0.5-0.7 0.3-0.3 0.7-0.3 0.5 0 0.8 0.4 0.3 0.3 0.3 0.8z"/>
					<path fill-rule="evenodd" class="s4" d="m425.5 704.5q0 1.1-0.4 2.1-0.3 1-1 1.7-0.7 0.7-1.6 1.1-1 0.4-2.2 0.4-1.1 0-2.1-0.4-0.9-0.4-1.6-1.1-0.7-0.7-1.1-1.7-0.3-0.9-0.3-2.1 0-1.2 0.3-2.2 0.4-0.9 1.1-1.6 0.7-0.7 1.6-1.1 1-0.4 2.1-0.4 1.2 0 2.2 0.4 0.9 0.4 1.6 1.1 0.7 0.7 1.1 1.6 0.3 1 0.3 2.2zm-2.6 0q0-1.6-0.7-2.5-0.7-0.9-1.9-0.9-0.7 0-1.3 0.4-0.6 0.4-0.9 1.2-0.3 0.8-0.3 1.8 0 1 0.3 1.8 0.3 0.7 0.9 1.1 0.6 0.4 1.3 0.4 1.2 0 1.9-0.9 0.7-0.8 0.7-2.4z"/>
					<path class="s4" d="m435.4 704.7v3.4q0 0.8-0.4 1.3-0.3 0.4-0.9 0.4-0.6 0-1-0.4-0.4-0.5-0.4-1.3v-4.1q0-1 0-1.5-0.1-0.6-0.4-0.9-0.3-0.4-0.9-0.4-1.3 0-1.7 0.9-0.4 0.9-0.4 2.5v3.5q0 0.8-0.4 1.3-0.3 0.4-0.9 0.4-0.6 0-1-0.4-0.4-0.5-0.4-1.3v-7.4q0-0.7 0.4-1.1 0.3-0.4 0.8-0.4 0.6 0 0.9 0.4 0.4 0.3 0.4 1v0.2q0.7-0.8 1.4-1.2 0.8-0.4 1.7-0.4 1 0 1.7 0.4 0.7 0.4 1.2 1.2 0.6-0.8 1.4-1.2 0.7-0.4 1.7-0.4 1 0 1.8 0.5 0.8 0.4 1.1 1.1 0.4 0.8 0.4 2.3v5q0 0.8-0.4 1.3-0.4 0.4-1 0.4-0.6 0-0.9-0.4-0.4-0.5-0.4-1.3v-4.3q0-0.9-0.1-1.4-0.1-0.5-0.4-0.8-0.3-0.4-0.9-0.4-0.5 0-1 0.3-0.5 0.3-0.7 0.9-0.3 0.6-0.3 2.3z"/>
				</g>
				<g>
					<path class="s4" d="m314.7 703.9q0 0 0-0.1 0 0.1 0 0.1z"/>
					<path class="s4" d="m314.8 704.7q0 0 0 0 0-0.4-0.1-0.7 0.1 0.3 0.1 0.7z"/>
					<path class="s4" d="m315.7 707.1q0 0 0 0 0 0 0 0z"/>
					<path class="s4" d="m315.6 706.9q0 0-0.1-0.1 0.1 0.1 0.1 0.1z"/>
					<path class="s4" d="m315.1 705.6q0.2 0.6 0.4 1.2-0.2-0.6-0.4-1.2 0 0 0 0z"/>
					<path class="s4" d="m324.7 693.9c0.5 0 0.9 0.1 1.3 0.1l0.1-0.7c0 0-1.1-0.4-2.7-0.3l-0.1-0.4c0.5-0.1 0.9-0.5 0.9-1 0-0.6-0.5-1.1-1.1-1.1-0.6 0-1.1 0.5-1.1 1.1 0 0.5 0.4 0.9 0.9 1l0.1 0.5c-1.6 0.2-2.9 0.9-2.9 0.9l0.2 0.7q1.5-0.5 2.6-0.7c0.8 0 1.4-0.1 1.8-0.1z"/>
					<path class="s4" d="m315.7 697.8q0-0.1 0.1-0.2l-0.3-0.2-0.5-0.3c0 0-0.8 0.7-1.4 2q-0.1-0.1-0.1-0.1-0.3-0.3-0.8-0.3 0 0 0 0-0.3 0-0.4-0.2 0.1-0.1 0.1-0.4c0-0.3-0.3-0.6-0.6-0.6-0.4 0-0.7 0.3-0.7 0.6 0 0.4 0.3 0.7 0.7 0.7q0 0 0.1 0c0.2 0.2 0.5 0.3 0.8 0.3q0.3 0 0.5 0.2c0.1 0.1 0.1 0.3 0.1 0.4q0 0 0 0c-0.4 1.2-0.3 2.7-0.3 2.7h1.1c0-0.5 0.1-1.5 0.3-2.2 0.6-1.5 1.2-2.4 1.3-2.4z"/>
					<path class="s4" d="m333.9 694.8c-0.3 0-0.6 0.3-0.6 0.7q0 0.1 0 0.1c-0.2 0.2-0.4 0.5-0.4 0.9q0.1 0.2-0.1 0.4-0.1 0.1-0.3 0.1c-0.8-1.1-1.8-1.7-1.8-1.7l-0.7 0.8q0.8 0.7 1.7 2c0.4 0.5 0.8 1.3 1.1 2l1.1-0.5c0 0-0.5-1.2-1.2-2.2q0.2-0.1 0.4-0.2 0.3-0.3 0.3-0.8 0-0.3 0.1-0.4 0.2 0.1 0.4 0.2c0.4 0 0.7-0.3 0.7-0.7 0-0.4-0.3-0.7-0.7-0.7z"/>
					<path class="s4" d="m331.3 704c-1.4 0.7-3.8 1.6-6.8 2-1.2 0.2-2.4 0.3-3.4 0.3-1.4 0-2.7-0.1-3.6-0.3-1.1-0.1-1.9-0.3-2.4-0.4q0.2 0.6 0.4 1.2 0 0 0 0 0.1 0.1 0.1 0.1 0 0.1 0.1 0.2 0 0 0 0 0.4 0.9 1.1 1.5c1.4 1.6 2.9 1.9 2.9 1.9 0 0 1.3 0.4 3.3 0.4q2.9 0 5.7-1.2c1.3-0.6 2.6-1.7 3.2-2.6q0.8-1.1 1.1-2.3c0.1-0.4 0.2-1.1 0.1-1.8-0.4 0.2-1 0.6-1.8 1z"/>
					<path fill-rule="evenodd" class="s4" d="m316.9 697.3v-0.1c1-0.8 2.2-1.5 3.6-2q1.4-0.5 2.5-0.6c0.7-0.1 1.3-0.1 1.7-0.1 0.5 0 0.8 0 1.3 0.1 1.1 0.2 3.2 0.9 5.2 3.8 0.8 1 1.5 2.6 1.8 3.6-0.3 0.2-1 0.7-2.1 1.3-1.4 0.6-3.6 1.5-6.5 1.9-4.7 0.6-8.9-0.3-9.6-0.5q0-0.4-0.1-0.7 0-0.1 0-0.1 0 0 0-0.1-0.1-0.5-0.1-1c0 0 0-1.4 0.4-2.4 0.5-1.4 1.1-2.2 1.1-2.3 0.4-0.4 0.7-0.7 0.8-0.8zm9.7 1.9c0 1 0.8 1.7 1.8 1.7 0.9 0 1.7-0.7 1.7-1.7 0-1-0.8-1.7-1.7-1.7-1 0-1.8 0.7-1.8 1.7zm-9.3 1c0 1.6 1.3 2.8 2.8 2.8 1.6 0 2.9-1.2 2.9-2.8 0-1.6-1.3-2.8-2.9-2.8-1.5 0-2.8 1.2-2.8 2.8z"/>
				</g>
			</g>
		</g>
		<g>
			<path fill-rule="evenodd" class="s1" d="m207.4 164.6q-0.1 0.1-0.1 0.2-0.2 0.6-0.4 1.3-0.4 1.3-0.8 2.5c-10.5 30.1-38.8 49.1-69 49.1q-0.4 0-0.7 0c-7.7-0.1-15.6-1.4-23.3-4.1-25.5-8.8-43-30.5-47.7-55.4l-0.2-1.1q0 0 0 0c-0.8-4.6-1.2-9.3-1.1-14q0.1-3.2 0.4-6.4c0.6-5.3 1.8-10.7 3.6-16q1.7-4.8 4-9.2 0-0.1 0.1-0.3v0.1c4.1-8.1 9.7-15.2 16.2-21 19.1-17.1 46.7-23.6 72.7-14.6 9.2 3.2 17.4 8.1 24.4 14.3 13.6 12 22.2 28.8 24.2 46.7q0.3 3.2 0.4 6.4c0.2 7.1-0.7 14.3-2.7 21.5zm-3-30.7q0.1 1.4 0.2 2.8 0.2 3 0.2 6.3c0 3.8-0.2 8-0.8 12.4q-0.3 2.2-0.7 4.4 0.1 0.2 0.2 0.4 0.5-2.3 0.9-4.5 1-6.4 0.9-12.7-0.1-3.1-0.5-6.3-0.2-1.4-0.4-2.8zm-19.9 59.8l-2.4-1.3c-12.6 8.9-30.3 10.5-33.2 10.7-3 1.9-8.1 4.3-11.8 6q-0.4 0.2-0.7 0.3-1.1 0.5-1.8 0.8 0.7 0.4 1.8 0.8 0.3 0.1 0.7 0.2c1.9 0.5 4.7 1 8.6 1.1 14.6-1.9 28.2-8.4 38.8-18.6zm-111.4-25.7c3.2 8.8 8.2 16.9 14.7 23.7q3.2 3.5 7 6.4c3 1.5 7.8 3.3 12.7 3.4 0-1.1 0-2.5 0-4 0-3 0-6.4 0.1-8.4-8.2-6.5-18.5-24-20.1-26.7q0.8 0.2 1.6 0.2l-1.8-0.5q0 0.1 0.2 0.3c-4.9-0.7-9.9-3.1-12.2-4.3-0.9 3.2-1.8 7.1-2.2 9.9zm16-5.4q0 0 0 0 0 0 0 0zm0 0c0 0 0.3-0.9 0.8-2.2q-0.3-0.5-0.3-0.5zm0.8-2.3q0 0 0 0 0 0 0 0 0 0 0 0 0 0 0 0 0 0 0 0 0 0 0 0zm0 0c1.8 3.3 12.8 22 20.4 27.2 13.8 1.1 21.6-0.9 24.4-1.8q0.7-1.9 1.6-4 0.4-0.8 0.8-1.7c3.4-8.3 7.3-17.9 8.7-21.2-1.9-1.5-5.3-4.9-8.7-8.7q-0.4-0.4-0.8-0.8 0 0 0-0.1c-2.1-2.2-4-4.6-5.7-6.7-1.6-2.1-3-4-3.7-5.3-9.4 0.6-24.5 1-28.7 1.1-0.6 1.1-1.3 2.6-2 4.5-1.3 3.1-2.7 7-3.9 10.6-1 2.7-1.9 5.2-2.4 6.9zm13.6 43.7q5.3 3 11.2 5c6 2.1 12.2 3.3 18.3 3.7-1.2-0.6-2-1.3-2.5-2-5.6-1-16-4.8-20.5-6.5-2.2 0.3-4.4 0.1-6.5-0.2zm86.7-35.1c-3.2-3.6-9.1-9-13.7-13.2-1.6-1.4-3-2.6-4.2-3.6-5.3 2.3-18.5 5.7-23.5 6.9-1.1 2.7-7.7 19-11.7 28.5q0 0-0.1 0.1 0.1 0 0.1 0c1.1 1.8 2.6 3.5 4.1 5.1 3.2 3.4 6.8 6 8.8 7.3 5.3-0.5 22.3-2.9 33-12.1 2.4-4.3 6.2-11.8 7.2-19zm-1.8-58c-2.3 1.6-6 4.3-9.6 6.8-1.9 1.3-3.7 2.5-5.3 3.5 0.3 2.9 0.6 9.4 0.7 15.5 0.1 2.1 0.1 4.2 0.1 6.1 0.1 2.3 0.1 4.4 0.1 5.9q0 0.9 0 1.4c0.8 0.7 1.9 1.6 3.1 2.7 4.2 3.6 10.3 9.2 14.2 13.5 2.3-1.2 8.6-6.2 8.6-6.2q0.6-3.2 0.9-6.4c0.5-3.7 0.6-7.4 0.6-10.7q0-3.4-0.1-6.3c-0.5-7.4-1.6-12.3-1.6-12.4 0 0-8.9-10.5-11.7-13.4zm-46-34.2l3.5 2.1v-0.1c0.4 0.1 3.8 0.7 8.5 2.1 5.9 1.6 13.8 4.4 20.6 8.3q0.8 0.5 1.5 0.9 0.3-0.3 0.5-0.6-0.1-0.1-0.2-0.1c-5.2-3.8-11-6.8-17.4-9.1q-4.7-1.6-9.6-2.5-3.7-0.7-7.4-1zm-8.7 11.1q0 0.1 0 0.1c2.7 3.9 8.7 13.1 12 21.5 5.9 0.3 21.7 6.6 26.3 9.3 1.7-1.1 3.8-2.5 6-4 3-2.1 6.2-4.4 8.9-6.4-1.1-4.5-6.2-10.5-9.4-14.1-2.9-2.1-6.3-4-9.7-5.5-2.6-1.2-5.1-2.2-7.6-3-8-2.8-14.7-4.1-14.8-4.1 0 0-9 4.2-11.7 6.2zm-27.7 4.1c-2.8 3.1-12.3 14.1-17.1 28.2 1.7 4.6 6.8 12.1 9 15.3 4.1-0.1 19.7-0.5 29.2-1.1 2.8-4.5 12.9-18.9 16.1-23.4-3.3-8.5-9.7-18.2-12.2-21.7-7.4-1.3-19.6 1.4-25 2.7zm-32.5 28.1c0.1 2.5 0.7 4.6 1.3 6.1 3.5-3.6 9-6.8 11.8-8.3 4.7-12.9 12.8-22.9 16.4-26.9l-0.3-1.8-0.7-2.9q-2.6 1.6-5 3.3c-10.3 7.5-18.6 17.9-23.5 30.5zm-4.6 23c-0.1 4.5 0.3 9 1 13.3q0.5 3 1.3 5.8c0.5-2.4 1.2-4.6 1.6-6.2q0.1-0.3 0.2-0.6c-1.3-3.8-1.6-8.2-1.6-12.3 0.1-2.2 0.3-4.4 0.5-6.3 0.3-3.3 0.9-6 1.2-7.5-0.5-0.9-1.1-2.1-1.5-3.5q-1.6 5.5-2.3 11-0.3 3.2-0.4 6.3z"/>
			<path class="s2" d="m136.2 126.2c0 0 9.6-13.4 11.8-12.9 4.8 1 20.5 7.1 21.7 9.1 1.3 2 2 17.7 2 17.7 0 0-2.8-16.1-3.7-16.6-6.8-3.4-19.1-8.1-21.3-6.4-8.7 6.7-8.2 7.9-10.5 9.1z"/>
			<path class="s2" d="m119.2 191c0.9 0.1 14.1-1.8 15.2-0.7 1 1 8.8 8.3 8.8 8.3 0 0-7.8-5.8-10-6.3-2.3-0.6-14-1.3-14-1.3z"/>
			<path class="s2" d="m77.9 126.3c0 0 7.5-6.4 8.2-5.4 0.6 1 9.2 14 9 15.2-0.1 1.3-1.9 8.7-1.9 8.7 0 0 0.5-8.1 0.1-9.2-0.7-2-7.8-12.2-8.6-12.2-0.7 0-6.8 2.9-6.8 2.9z"/>
		</g>
		<path class="s1" d="m216.6 143v6.8h50v37.1l-129.9 115.6c-33.2-31.4-117.5-104.1-128.5-113.6v-39.1h50.6v-6.8h-57.4v49l1.2 1c0.9 0.9 98.4 84.7 131.6 116.6l2.3 2.1 137-121.7v-47c0 0-56.9 0-56.9 0z"/>
		<path class="s1" d="m39.4 167.8l9.1 1-6.3 6.6 1.8 9-8.2-4-8 4.5 1.3-9.1-6.7-6.2 9-1.6 3.7-8.3z"/>
		<path class="s1" d="m244.4 167.8l9.1 1-6.3 6.6 1.8 9-8.2-4-8 4.5 1.3-9.1-6.8-6.2 9-1.6 3.8-8.3z"/>
		<path class="s1" d="m509 317.9q-0.1 0 0 0 0-0.1 0 0z"/>
		<path class="s2" d="m509 317.9q-0.1 0 0 0 0-0.1 0 0z"/>
		<path class="s1" d=""/>
		<path class="s2" d=""/>
		<path class="s1" d=""/>
		<path class="s2" d=""/>
		<path class="s1" d="m508.8 317.9q-0.1 0.1 0 0.1 0.1-0.1 0 0z"/>
		<path class="s2" d="m508.8 317.9q-0.1 0.1 0 0.1 0.1-0.1 0 0z"/>
		<path class="s1" d=""/>
		<path class="s2" d=""/>
		<path class="s1" d="m508.4 318.2q0 0 0 0 0 0 0 0z"/>
		<path fill-rule="evenodd" class="s1" d="m558.9 210.3q0 0.1 0 0.2-0.2 0.4-0.3 0.9-0.3 0.9-0.6 1.8c-7.4 21.4-27.5 34.8-49 34.8q-0.2 0-0.5 0c-5.4 0-11-1-16.5-2.9-18.1-6.2-30.5-21.7-33.9-39.3l-0.1-0.8q0 0 0 0-0.9-4.9-0.8-9.9 0.1-2.3 0.3-4.5c0.4-3.8 1.3-7.6 2.6-11.4q1.2-3.4 2.8-6.6 0 0 0.1-0.1c2.9-5.7 6.8-10.7 11.5-14.9 13.6-12.1 33.2-16.7 51.6-10.3 6.5 2.2 12.4 5.7 17.3 10.1 9.6 8.5 15.7 20.4 17.2 33.2q0.2 2.2 0.3 4.5c0.1 5-0.6 10.1-2 15.2zm-46-62.3l2.4 1.5v-0.1c0.3 0.1 2.7 0.5 6 1.5 4.2 1.2 9.8 3.1 14.7 5.9q0.5 0.3 1 0.6 0.2-0.2 0.4-0.4-0.1-0.1-0.2-0.1c-3.6-2.7-7.8-4.8-12.3-6.4q-3.4-1.2-6.8-1.8-2.6-0.5-5.2-0.7zm-6.3 7.9q0.1 0 0.1 0.1c1.9 2.7 6.1 9.2 8.5 15.2 4.2 0.2 15.4 4.7 18.6 6.6 1.2-0.8 2.7-1.8 4.3-2.9 2.1-1.4 4.4-3.1 6.3-4.5-0.8-3.2-4.4-7.5-6.6-10-2.1-1.5-4.5-2.8-7-3.9-1.8-0.8-3.6-1.5-5.3-2.1-5.7-2-10.5-2.9-10.5-3 0 0-6.4 3-8.4 4.5zm25.6 24.5c-0.9-1.4-12-5.8-15.4-6.5-1.5-0.3-8.4 9.2-8.4 9.2 1.7-0.9 1.3-1.7 7.4-6.5 1.6-1.2 10.3 2.1 15.2 4.6 0.6 0.3 2.6 11.7 2.6 11.7 0 0-0.5-11.1-1.4-12.5zm-45.2-21.6c-2 2.2-8.7 10-12.1 20 1.2 3.3 4.8 8.6 6.4 10.9 2.8-0.1 13.9-0.4 20.7-0.8 1.9-3.3 9.2-13.5 11.4-16.6-2.3-6-6.9-13-8.6-15.5-5.3-0.9-14 1-17.8 2zm-9.1 37.5c0 0 1.2-5.3 1.4-6.2 0.1-0.8-6-10-6.5-10.7-0.4-0.8-5.7 3.8-5.7 3.8 0 0 4.2-2.1 4.8-2.1 0.5 0 5.5 7.3 6 8.7 0.3 0.7 0 6.5 0 6.5zm-13.9-17.6c0 1.8 0.4 3.3 0.9 4.4 2.4-2.6 6.3-4.9 8.4-5.9 3.3-9.2 9-16.3 11.6-19.1l-0.3-1.3-0.4-2.1q-1.9 1.1-3.6 2.4c-7.3 5.3-13.2 12.6-16.6 21.6zm-0.4 25c-0.9-2.6-1.2-5.7-1.1-8.7 0-1.5 0.1-3.1 0.3-4.4 0.2-2.4 0.6-4.3 0.8-5.4-0.3-0.6-0.7-1.4-1-2.4q-1.2 3.9-1.6 7.8-0.3 2.2-0.3 4.4-0.1 4.8 0.7 9.5 0.4 2.1 0.9 4.1c0.4-1.7 0.8-3.3 1.1-4.4q0.1-0.2 0.2-0.5zm15.4 30.4c2.2 1 5.6 2.4 9.1 2.4-0.1-0.8-0.1-1.8-0.1-2.8 0-2.1 0.1-4.5 0.1-6-5.8-4.6-13.1-17-14.3-18.9q0.6 0.1 1.2 0.1c0 0 0.2-0.6 0.5-1.6 1.4 2.4 9.2 15.6 14.6 19.3 9.8 0.8 15.3-0.6 17.2-1.3q0.6-1.3 1.2-2.8 0.3-0.6 0.5-1.2c2.5-5.9 5.3-12.7 6.2-15.1-1.3-1-3.7-3.4-6.2-6.1q-0.2-0.3-0.5-0.6 0 0 0 0c-1.5-1.7-2.9-3.3-4-4.8-1.2-1.5-2.1-2.8-2.6-3.8-6.7 0.4-17.5 0.7-20.5 0.8-0.4 0.8-0.8 1.9-1.4 3.2-0.8 2.2-1.9 5-2.7 7.5-0.7 1.9-1.3 3.7-1.8 4.9q-0.1-0.3-0.2-0.3l-0.3 1.9-1.3-0.3q0 0 0.1 0.2c-3.4-0.6-7-2.2-8.6-3.1-0.7 2.3-1.3 5-1.6 7.1 2.3 6.2 5.8 11.9 10.5 16.8q2.3 2.4 4.9 4.5zm27.1 10.4c-0.8-0.5-1.4-1-1.7-1.4-4-0.8-11.3-3.4-14.6-4.6-1.5 0.1-3.1 0.1-4.6-0.2q3.8 2.1 8 3.6c4.3 1.5 8.6 2.3 12.9 2.6zm-9.7-15.4q0 0 0 0 0 0 0 0zm0 0c0.7 0 8.4 0.5 9.8 0.9 1.6 0.3 7.1 4.5 7.1 4.5 0 0-5.4-5.2-6.2-5.9-0.8-0.8-9.7 0.5-10.7 0.5zm46.3 1.9l-1.7-1c-9 6.4-21.5 7.5-23.6 7.7-2.1 1.3-5.8 3-8.4 4.2q-0.2 0.1-0.5 0.3-0.7 0.3-1.3 0.5 0.5 0.3 1.3 0.6 0.3 0 0.5 0.1c1.4 0.4 3.4 0.7 6.2 0.8 10.3-1.3 20-6 27.5-13.2zm4-17.6c-2.2-2.6-6.4-6.4-9.7-9.3-1.1-1-2.1-1.9-3-2.6-3.7 1.6-13.1 4-16.6 4.9-0.8 1.9-5.5 13.5-8.4 20.2q0 0 0 0.1 0 0 0 0c0.9 1.3 1.9 2.5 3 3.6 2.3 2.4 4.8 4.3 6.2 5.2 3.8-0.4 15.8-2.1 23.4-8.6 1.8-3 4.4-8.3 5.1-13.5zm8.3-18.4q0-2.4-0.1-4.4c-0.3-5.3-1.1-8.7-1.1-8.8 0 0-6.3-7.5-8.3-9.6-1.6 1.2-4.3 3.1-6.9 4.9-1.3 0.9-2.6 1.7-3.7 2.5 0.2 2 0.4 6.6 0.5 11 0 1.5 0.1 2.9 0.1 4.3 0 1.7 0 3.1 0 4.2q0.1 0.6 0.1 1c0.5 0.4 1.3 1.1 2.1 1.9 3 2.6 7.4 6.5 10.1 9.6 1.6-0.9 6.1-4.4 6.1-4.4q0.4-2.3 0.7-4.5c0.3-2.7 0.4-5.3 0.4-7.7zm2.4 0q0-2.2-0.3-4.4-0.1-1-0.3-2 0.1 0.9 0.2 2 0.1 2 0.1 4.4c0 2.7-0.2 5.7-0.6 8.8q-0.2 1.6-0.5 3.1 0.1 0.2 0.2 0.3 0.3-1.6 0.6-3.2 0.7-4.5 0.6-9z"/>
		<path class="s0" d="m81.4 373.5l-61.1 61.1v-11.3l45.5-45.5c5.2-1.7 10.4-3.1 15.6-4.3z"/>
		<path class="s0" d="m110.4 368.5l-90.1 90.1v-11.3l76.9-76.9c4.6-0.8 9-1.4 13.2-1.9z"/>
		<path class="s0" d="m136.3 366.6l-116 116v-11.3l104.1-104.1c5-0.4 9.1-0.5 11.9-0.6z"/>
		<path class="s0" d="m159.5 367.4l-139.2 139.2v-11.3l128.6-128.6c2.9 0.1 6.5 0.3 10.6 0.7z"/>
		<path class="s0" d="m181.1 369.8l-160.8 160.8v-11.3l150.8-150.8q4.8 0.5 10 1.3z"/>
		<path class="s0" d="m201.2 373.7l-176 176c-1.3-3.1-2.3-5.9-3-8.3l169.7-169.7q4.6 0.9 9.3 2z"/>
		<path class="s0" d="m219.8 379.1l-186 185.9q-2.4-3.6-4.3-6.9l181.7-181.8q4.4 1.3 8.6 2.8z"/>
		<path class="s0" d="m235.1 387.8l-190.6 190.6q-2.8-3.1-5.2-6.1l189.7-189.7 0.4-0.5 1.1 1.1 0.1 0.1z"/>
		<path class="s0" d="m251.7 395.2l-195 195q-3.1-2.7-5.9-5.4l194.1-194.2q3.6 2.2 6.8 4.6z"/>
		<path class="s0" d="m261 409.9l-190.9 190.9q-3.4-2.4-6.4-4.9l194.1-194.1c1.5 2.5 2.6 5.4 3.2 8.1z"/>
		<path class="s0" d="m261.5 422.1v11.3l-176.9 176.9q-3.6-2.2-6.9-4.4z"/>
		<path class="s0" d="m261.5 446.1v11.3l-161.5 161.5q-3.8-2-7.3-4z"/>
		<path class="s0" d="m261.5 470.1v11.3l-145.2 145.2q-4-1.7-7.8-3.5z"/>
		<path class="s0" d="m261.5 494.1v11.3l-128.3 128.2q-4.1-1.6-8-3.2z"/>
		<path class="s0" d="m261.5 518.1v11.3l-98.2 98.2q-8.9 3.9-18.9 7.6z"/>
		<path class="s0" d="m258.3 545.3c-2.6 7.1-7.3 16.6-16 27.3l-19.9 19.8c-9.1 7.7-20.4 15.5-34.3 23.1z"/>
		<path fill-rule="evenodd" class="s5" d="m138.8 642.1c-2.4-0.8-4.9-1.8-7.7-2.8-3.1-1.2-5.7-2.3-8.2-3.3-3.5-1.4-6.4-2.7-9.1-3.9-2.5-1.1-5.1-2.3-7.9-3.6-2.9-1.4-5.8-2.9-8.6-4.3-2.6-1.3-5.2-2.7-7.6-4-2.8-1.6-5.6-3.2-8.2-4.8-2.6-1.5-4.9-3-7.1-4.5-2.8-1.8-5.4-3.5-7.8-5.3-2.1-1.5-4.3-3.1-6.6-4.9-2.6-2-5-4-7.3-6-2.1-1.8-4.2-3.7-6.1-5.6-2.3-2.2-4.5-4.4-6.5-6.7-1.9-2-3.8-4.2-5.5-6.3-2-2.5-4-5.1-5.7-7.7-1.6-2.3-3.1-4.7-4.6-7.3-1.7-2.9-3.2-6-4.6-9-1.3-3.1-2.4-6.1-3.3-9-1.9-6.5-2.1-10.5-2.1-10.9v-118.2c0-6.7 3.5-16.7 10-21.9 10.1-8.1 23.5-14.9 39.7-20 5-1.6 10.4-3.1 16-4.4 5.1-1.2 10.6-2.3 16.2-3.2 4.4-0.8 8.9-1.4 13.5-1.9 4.6-0.6 9.3-1 14.3-1.4 4-0.3 8.1-0.5 12.1-0.6 2.4-0.1 4-0.1 4.6-0.1h0.3c0.8 0 3.7 0 8.1 0.2 3.6 0.2 7.2 0.4 10.9 0.7 4 0.3 7.9 0.7 11.8 1.1 3.5 0.4 6.9 0.9 10.2 1.4 3.7 0.6 7.4 1.2 11 1.9 3.5 0.7 6.6 1.4 9.6 2.1 3.4 0.8 6.9 1.7 10.3 2.7 2.9 0.8 5.9 1.8 8.9 2.8 3.3 1.1 6.5 2.3 9.5 3.6q0.9 0.4 1.8 0.8l0.7 0.3c4.9 2.1 9.7 4.6 14.3 7.4 2.5 1.6 5 3.2 7.2 4.9 0.7 0.5 1.5 1.1 2.2 1.7 2.1 1.7 3.9 3.9 5.5 6.6 1.8 3 3.1 6.6 3.9 10 0.4 1.8 0.6 3.6 0.6 5.3v118.2c-0.1 0.6-0.3 6.2-3.5 15.1-3.6 9.8-9.3 19.6-17.1 29.1-5.7 7.1-12.7 14.1-20.6 20.7-10.1 8.4-22 16.3-35.3 23.7-8 4.3-16.5 8.4-25.3 12.3-6.2 2.7-12.6 5.3-19.2 7.7q-1.8 0.7-3.6 1.3l-2 0.8z"/>
		<path class="s1" d="m261.5 415v44.6h-241.2v-44.6c0-5.5 3.2-13.5 7.8-17.2 10.5-8.5 23.9-14.6 37.7-19 5.2-1.7 10.4-3.1 15.6-4.3 5.3-1.2 10.7-2.2 15.8-3.1 4.6-0.8 9-1.4 13.2-1.9 5.1-0.6 9.9-1 14-1.3 5-0.4 9.1-0.5 11.9-0.6 2.9-0.1 4.5-0.1 4.6-0.1 0.1 0 3 0 8 0.2 2.9 0.1 6.5 0.3 10.6 0.7 3.5 0.2 7.4 0.6 11.6 1.1q4.8 0.6 10 1.3c3.5 0.6 7.1 1.2 10.8 1.9q4.6 0.9 9.3 2 5 1.2 10 2.7 4.4 1.2 8.6 2.7 4.7 1.6 9.2 3.5 0.8 0.3 1.5 0.6l0.1 0.1q7.5 3.1 14.3 7.4 3.6 2.1 6.8 4.5 1 0.8 2 1.6c1.6 1.2 3 3 4.1 5 1.5 2.5 2.6 5.4 3.2 8.1 0.3 1.5 0.5 2.9 0.5 4.1z"/>
		<path fill-rule="evenodd" class="s6" d="m261.5 414v118c0 0-0.2 5-3.2 13.3-2.6 7.1-7.3 16.6-16 27.3-5.1 6.3-11.6 13-19.9 19.8-9.1 7.7-20.4 15.5-34.3 23.1-7.5 4.1-15.7 8.1-24.8 12.1q-8.9 3.9-18.9 7.6-1.8 0.6-3.5 1.3-3.9-1.4-7.7-2.8-4.1-1.7-8.1-3.3-4.5-1.9-8.8-3.8-4-1.7-7.8-3.5-4.4-2.1-8.5-4.2-3.8-2-7.4-4-4.1-2.3-8-4.6-3.6-2.2-6.9-4.4-4-2.6-7.6-5.1-3.4-2.4-6.4-4.9-3.7-2.8-7-5.7-3.1-2.7-5.9-5.4-3.4-3.2-6.3-6.4-2.8-3.1-5.2-6.1-3.1-3.7-5.5-7.2-2.4-3.7-4.3-7c-1.8-3-3.1-5.8-4.3-8.4-1.3-3.1-2.3-5.9-3-8.3-1.8-5.9-1.9-9.4-1.9-9.4v-118c0-5.5 3.2-13.5 7.8-17.2 10.6-8.5 23.9-14.6 37.7-19 5.2-1.7 10.4-3.1 15.6-4.3 5.3-1.2 10.7-2.3 15.8-3.1 4.6-0.8 9-1.4 13.2-1.9 5.1-0.6 9.9-1 14-1.3 5-0.4 9.1-0.5 11.9-0.6 2.9-0.1 4.5-0.1 4.6-0.1 0.1 0 3.1 0 8 0.2 2.9 0.1 6.5 0.3 10.6 0.6 3.5 0.3 7.4 0.7 11.6 1.2q4.8 0.5 10 1.3c3.5 0.6 7.1 1.2 10.8 1.9q4.6 0.9 9.3 2 5 1.2 10 2.6 4.4 1.3 8.6 2.8 4.7 1.6 9.2 3.5 0.8 0.3 1.5 0.6l0.1 0.1q7.5 3.1 14.3 7.3 3.6 2.2 6.8 4.6 1 0.8 2 1.6c1.6 1.2 3 3 4.1 5 1.5 2.5 2.6 5.4 3.2 8.1 0.3 1.5 0.5 2.8 0.5 4.1z"/>
		<path class="s1" d="m640.9 415.6c-48.1-2.8-38.8-40.2-38.8-40.2-47-8.2-82.4-7.8-93.7-7.3-11.3-0.5-46.8-0.9-93.8 7.3 0 0 9.3 37.4-38.8 40.2 0 0-35.8 160.5 132.3 229.5v0.2q0.1-0.1 0.3-0.1 0.1 0 0.2 0.1v-0.2c168.1-69 132.3-229.5 132.3-229.5z"/>
		<path class="s0" d="m615.8 536.9c-6.4 13.4-14.3 25.8-23.7 37.3-20.6 25-48.8 45.2-83.7 60.1-35.2-15-63.4-35.3-84.1-60.5-9.1-11.1-16.8-23.2-23-36.2 70.1-10.6 144.2-10.7 214.5-0.7z"/>
		<path class="s2" d="m633.5 467.3c-0.8 10.9-2.5 22.9-5.6 35.5-3 11.9-7.1 23.3-12.2 34.1-70.2-10-144.3-9.9-214.4 0.7-5.3-11.2-9.6-23.1-12.6-35.5-3-11.9-4.6-23.1-5.4-33.4-1.5-19.5-0.1-35.4 1.1-43.9 15.1-2.2 26.3-8.2 33.3-17.8 5.8-7.9 7.4-16.6 7.6-23.2 30.8-4.8 55.9-5.9 72-5.9 4.8 0 8.5 0.1 10.7 0.2h0.4 0.3c2.3-0.1 5.9-0.2 10.7-0.2 16.1 0 41.2 1.1 72 5.9 0.2 6.6 1.8 15.3 7.6 23.2 7 9.6 18.2 15.5 33.3 17.8 1.1 8.4 2.5 23.6 1.2 42.5z"/>
		<path class="s1" d="m653.4 470.6q-0.1 0.5-0.1 1c-1 10.9-2.7 22.8-5.8 35.3q-4.3 17.3-11.2 33.2-10.2-1.8-20.5-3.2c-70.3-10-144.4-9.9-214.5 0.7q-10.2 1.6-20.4 3.5-7.2-16.4-11.6-34.2c-3.1-12.2-4.8-23.9-5.8-34.6q9.9-1.9 19.8-3.6c81.7-13.7 168.3-14.1 250.2-1.4q10 1.5 19.9 3.3z"/>
		<path class="s2" d="m551.7 572.1c-23 23-60.1 23-83.1 0-23-23-23-60.1 0-83.1 23-23 60.1-23 83.1 0 23 23 23 60.1 0 83.1z"/>
		<path fill-rule="evenodd" class="s1" d="m560 544.7q0 0.1 0 0.2-0.2 0.4-0.3 0.8-0.3 1-0.6 1.9c-7.4 21.3-27.5 34.8-48.9 34.8q-0.3 0-0.6 0c-5.4-0.1-11-1-16.4-2.9-18.2-6.3-30.6-21.7-34-39.3l-0.1-0.8q0 0 0 0-0.9-4.9-0.8-10 0.1-2.2 0.3-4.5c0.4-3.8 1.3-7.6 2.6-11.3q1.2-3.5 2.8-6.6 0-0.1 0.1-0.2v0.1c2.9-5.8 6.9-10.8 11.5-14.9 13.6-12.1 33.2-16.8 51.6-10.4 6.5 2.3 12.4 5.8 17.3 10.1 9.6 8.6 15.8 20.5 17.2 33.2q0.2 2.3 0.3 4.5c0.1 5.1-0.6 10.2-2 15.3zm-46-62.4l2.4 1.5c0.3 0 2.7 0.5 6.1 1.5 4.1 1.1 9.7 3.1 14.6 5.9q0.5 0.3 1 0.6 0.2-0.2 0.4-0.4-0.1-0.1-0.1-0.1c-3.7-2.7-7.9-4.9-12.4-6.4q-3.4-1.2-6.8-1.9-2.6-0.5-5.2-0.7zm-6.3 7.9q0.1 0.1 0.1 0.1c1.9 2.8 6.1 9.3 8.5 15.3 4.2 0.2 15.4 4.6 18.6 6.6 1.2-0.8 2.7-1.8 4.3-2.9 2.1-1.5 4.4-3.1 6.3-4.5-0.8-3.2-4.3-7.5-6.6-10-2.1-1.5-4.5-2.8-6.9-3.9-1.8-0.9-3.7-1.6-5.4-2.2-5.7-1.9-10.4-2.9-10.5-2.9 0 0-6.4 3-8.4 4.4zm25.6 24.6c-0.9-1.4-12-5.8-15.4-6.5-1.5-0.3-8.4 9.2-8.4 9.2 1.7-0.9 1.3-1.7 7.5-6.5 1.5-1.2 10.2 2.1 15.1 4.5 0.6 0.4 2.6 11.8 2.6 11.8 0 0-0.5-11.2-1.4-12.5zm-45.2-21.6c-2 2.2-8.7 9.9-12.1 20 1.2 3.2 4.8 8.6 6.4 10.8 2.8 0 14-0.4 20.7-0.8 1.9-3.2 9.2-13.4 11.4-16.6-2.3-6-6.9-12.9-8.6-15.4-5.3-0.9-14 1-17.8 2zm-9.1 37.5c0 0 1.3-5.3 1.4-6.2 0.1-0.9-6-10.1-6.5-10.8-0.4-0.7-5.7 3.8-5.7 3.8 0 0 4.2-2.1 4.8-2.1 0.5 0.1 5.5 7.3 6.1 8.7 0.2 0.8-0.1 6.6-0.1 6.6zm-13.9-17.6c0 1.8 0.4 3.2 0.9 4.3 2.5-2.6 6.3-4.8 8.4-5.9 3.3-9.2 9.1-16.2 11.6-19.1l-0.3-1.2-0.4-2.1q-1.9 1.1-3.6 2.4c-7.3 5.3-13.2 12.6-16.6 21.6zm-0.4 25c-0.9-2.7-1.2-5.8-1.1-8.7 0-1.6 0.1-3.1 0.3-4.5 0.2-2.3 0.6-4.3 0.8-5.3-0.3-0.6-0.7-1.5-1-2.5q-1.1 3.9-1.6 7.8-0.3 2.3-0.3 4.5-0.1 4.8 0.7 9.5 0.4 2 0.9 4.1c0.4-1.7 0.8-3.3 1.2-4.4q0-0.3 0.1-0.5zm15.4 30.4c2.2 1 5.6 2.3 9.1 2.4-0.1-0.8-0.1-1.8-0.1-2.9 0-2.1 0.1-4.5 0.1-5.9-5.8-4.6-13.1-17-14.3-18.9q0.6 0.1 1.2 0.1c0 0 0.2-0.6 0.5-1.6 1.4 2.3 9.2 15.6 14.6 19.3 9.8 0.8 15.3-0.6 17.3-1.3q0.5-1.3 1.1-2.8 0.3-0.6 0.6-1.3c2.4-5.8 5.2-12.7 6.1-15-1.3-1-3.7-3.5-6.1-6.1q-0.3-0.3-0.6-0.6 0 0 0-0.1c-1.5-1.6-2.9-3.2-4-4.7-1.2-1.5-2.1-2.9-2.6-3.8-6.7 0.4-17.5 0.7-20.5 0.8-0.3 0.7-0.8 1.8-1.3 3.1-0.9 2.3-2 5.1-2.8 7.6-0.7 1.9-1.3 3.7-1.8 4.9q-0.1-0.3-0.1-0.3l-0.4 1.9-1.3-0.4q0 0.1 0.1 0.3c-3.4-0.6-6.9-2.2-8.6-3.1-0.7 2.3-1.3 5-1.6 7 2.3 6.3 5.8 12 10.5 16.9q2.3 2.4 4.9 4.5zm27.1 10.4c-0.8-0.5-1.4-1-1.7-1.4-4-0.8-11.3-3.4-14.6-4.6-1.5 0.1-3.1 0-4.6-0.2q3.8 2.1 8 3.6c4.3 1.5 8.6 2.3 12.9 2.6zm-9.7-15.4q0 0 0 0 0 0 0 0zm0 0c0.8 0 8.4 0.5 9.9 0.8 1.5 0.4 7.1 4.6 7.1 4.6 0 0-5.5-5.2-6.3-6-0.7-0.7-9.7 0.6-10.7 0.6zm46.3 1.9l-1.7-1c-9 6.4-21.5 7.5-23.6 7.6-2.1 1.4-5.7 3.1-8.3 4.3q-0.3 0.1-0.6 0.2-0.7 0.4-1.2 0.6 0.5 0.3 1.2 0.5 0.3 0.1 0.6 0.2c1.3 0.4 3.3 0.7 6.1 0.8 10.3-1.4 20-6 27.5-13.2zm4-17.6c-2.2-2.6-6.4-6.4-9.7-9.4-1.1-0.9-2.1-1.8-3-2.5-3.7 1.6-13.1 4-16.6 4.9-0.8 1.9-5.5 13.4-8.3 20.2q-0.1 0-0.1 0 0 0 0.1 0.1c0.8 1.2 1.8 2.5 2.9 3.6 2.3 2.4 4.8 4.2 6.2 5.2 3.8-0.4 15.9-2.1 23.4-8.6 1.8-3.1 4.4-8.4 5.1-13.5zm8.3-18.4q0-2.4-0.1-4.5c-0.3-5.2-1.1-8.7-1.1-8.7 0 0-6.3-7.5-8.3-9.6-1.6 1.2-4.3 3.1-6.9 4.8-1.3 0.9-2.6 1.8-3.7 2.5 0.2 2.1 0.4 6.7 0.5 11 0 1.5 0.1 3 0.1 4.3 0 1.7 0 3.2 0.1 4.2q0 0.7 0 1c0.5 0.5 1.3 1.2 2.1 1.9 3 2.6 7.4 6.6 10.1 9.6 1.6-0.8 6.1-4.4 6.1-4.4q0.4-2.2 0.7-4.5c0.3-2.7 0.4-5.2 0.4-7.6zm2.4 0q0-2.2-0.3-4.5-0.1-1-0.3-2 0.1 1 0.2 2 0.1 2.1 0.1 4.5c0 2.7-0.2 5.7-0.6 8.8q-0.2 1.5-0.5 3.1 0.1 0.1 0.2 0.3 0.3-1.6 0.6-3.2 0.7-4.5 0.6-9z"/>
		<path class="s2" d="m422.7 497.6l5.9 0.6-4.1 4.3 1.2 5.9-5.4-2.6-5.2 2.9 0.9-5.9-4.4-4 5.8-1.1 2.5-5.4z"/>
		<path class="s2" d="m602.9 497.6l5.9 0.6-4.1 4.3 1.2 5.9-5.4-2.6-5.2 2.9 0.8-5.9-4.4-4 5.9-1.1 2.5-5.4z"/>
		<path class="s1" d="m358.2 492.3l-26.7 6.4 22.8 25.5-11.3 32 46.5-5.7v-5l-13.5 0.5z"/>
		<path class="s1" d="m660.7 492.3l26.6 6.4-22.8 25.5 11.3 32-46.5-5.7v-5l13.5 0.5z"/>
		<path class="s2" d="m206.2 540.9c0 35.3-28.5 63.9-63.8 63.9-35.3 0-63.8-28.6-63.8-63.9 0-35.2 28.5-63.8 63.8-63.8 35.3 0 63.8 28.6 63.8 63.8z"/>
		<path fill-rule="evenodd" class="s1" d="m196.6 556.3q-0.1 0.1-0.1 0.2-0.1 0.4-0.3 0.9-0.3 1-0.6 2c-8.1 23.2-29.9 37.8-53.2 37.8q-0.3 0-0.6 0c-5.9 0-11.9-1.1-17.9-3.1-19.6-6.8-33.1-23.6-36.8-42.7l-0.1-0.9q0 0 0 0-1-5.3-0.9-10.8 0.1-2.4 0.4-4.9c0.4-4.1 1.3-8.3 2.7-12.3q1.3-3.8 3.1-7.2 0 0 0-0.1h0.1c3.2-6.2 7.4-11.7 12.4-16.2 14.8-13.1 36.1-18.2 56.1-11.2 7.1 2.4 13.4 6.2 18.8 11 10.5 9.2 17.1 22.2 18.6 36q0.3 2.4 0.4 4.9c0.1 5.5-0.6 11.1-2.1 16.6zm-50.1-67.8l2.7 1.7v-0.1c0.3 0.1 2.9 0.6 6.6 1.6 4.5 1.3 10.6 3.4 15.9 6.4q0.5 0.4 1.1 0.7 0.2-0.2 0.4-0.4-0.1-0.1-0.2-0.2c-4-2.8-8.5-5.2-13.3-6.9q-3.7-1.3-7.5-2-2.8-0.5-5.7-0.8zm-6.7 8.6q0 0.1 0 0.1c2.1 3 6.7 10.1 9.3 16.6 4.5 0.2 16.7 5 20.2 7.2 1.3-0.9 2.9-2 4.6-3.2 2.4-1.6 4.8-3.3 6.9-4.8-0.9-3.5-4.7-8.2-7.2-10.9-2.3-1.7-4.9-3.1-7.5-4.3-2-0.9-4-1.7-5.8-2.3-6.2-2.2-11.4-3.2-11.5-3.2 0 0-6.9 3.3-9 4.8zm27.8 26.6c-1-1.5-13.1-6.2-16.8-7-1.6-0.3-9.1 10-9.1 10 1.8-1 1.4-1.9 8.1-7 1.7-1.3 11.2 2.3 16.4 4.9 0.7 0.4 2.8 12.8 2.8 12.8 0 0-0.5-12.1-1.4-13.7zm-49.1-23.4c-2.2 2.4-9.5 10.8-13.2 21.7 1.3 3.6 5.2 9.4 6.9 11.8 3.1-0.1 15.2-0.4 22.5-0.8 2.1-3.5 10-14.6 12.4-18.1-2.5-6.5-7.5-14-9.3-16.7-5.8-1-15.2 1.1-19.3 2.1zm-10 40.7c0 0 1.4-5.7 1.6-6.6 0.1-1-6.5-11-7-11.8-0.5-0.7-6.3 4.2-6.3 4.2 0 0 4.6-2.3 5.2-2.3 0.6 0 6.1 7.9 6.6 9.5 0.3 0.8-0.1 7-0.1 7zm-15.1-19.1c0.1 2 0.5 3.6 1 4.8 2.7-2.9 6.9-5.3 9.1-6.4 3.7-10 9.9-17.7 12.7-20.8l-0.3-1.4-0.5-2.2q-2 1.2-3.9 2.6c-7.9 5.7-14.3 13.7-18.1 23.4zm-0.4 27.2c-0.9-2.9-1.2-6.3-1.2-9.5 0.1-1.6 0.2-3.3 0.4-4.8 0.2-2.5 0.6-4.6 0.9-5.8-0.4-0.7-0.8-1.6-1.2-2.7q-1.2 4.3-1.7 8.5-0.3 2.4-0.3 4.9-0.1 5.2 0.7 10.2 0.4 2.3 1 4.5c0.5-1.8 0.9-3.6 1.3-4.8q0.1-0.2 0.1-0.5zm16.8 33c2.3 1.1 6 2.6 9.8 2.6 0-0.8 0-1.9 0-3.1 0-2.3 0-4.9 0.1-6.4-6.4-5-14.3-18.5-15.5-20.6q0.6 0.1 1.2 0.2 0 0 0 0l-1.4-0.4q0.1 0 0.2 0.2c-3.8-0.6-7.6-2.4-9.5-3.3-0.7 2.5-1.3 5.4-1.6 7.6 2.4 6.8 6.3 13 11.3 18.3q2.5 2.6 5.4 4.9zm-4.4-27.3q0 0 0 0zm0 0c0.1-0.1 0.3-0.7 0.6-1.8 1.5 2.6 9.9 16.9 15.8 21 10.6 0.8 16.7-0.7 18.8-1.4q0.6-1.5 1.2-3.1 0.3-0.7 0.6-1.4c2.6-6.3 5.7-13.7 6.7-16.3-1.4-1.1-4.1-3.7-6.7-6.6q-0.3-0.4-0.6-0.7 0 0 0 0c-1.6-1.8-3.1-3.6-4.4-5.2-1.2-1.6-2.3-3.1-2.8-4.1-7.3 0.4-18.9 0.8-22.2 0.9-0.4 0.8-0.9 2-1.5 3.4-1 2.4-2.1 5.4-3 8.1-0.8 2.2-1.4 4.1-1.9 5.4q-0.2-0.3-0.2-0.3zm33.8 38.6c-0.9-0.5-1.5-1-1.9-1.5-4.3-0.9-12.3-3.7-15.8-5-1.7 0.1-3.4 0-5-0.2q4.1 2.3 8.6 3.9c4.7 1.6 9.4 2.5 14.1 2.8zm-10.6-16.8q0 0 0.1 0-0.1 0-0.1 0zm0.1 0c0.7 0.1 9 0.6 10.6 1 1.7 0.4 7.7 4.9 7.7 4.9 0 0-5.9-5.6-6.7-6.4-0.9-0.8-10.6 0.6-11.6 0.5zm50.2 2.1l-1.8-1c-9.8 6.9-23.4 8.1-25.7 8.3-2.3 1.4-6.2 3.3-9 4.6q-0.3 0.1-0.6 0.2-0.8 0.4-1.4 0.7 0.6 0.3 1.4 0.5 0.3 0.1 0.6 0.2c1.5 0.4 3.6 0.8 6.6 0.8 11.2-1.4 21.7-6.4 29.9-14.3zm4.4-19c-2.5-2.9-7-7-10.6-10.2-1.2-1.1-2.3-2.1-3.2-2.8-4 1.7-14.3 4.4-18.1 5.3-0.8 2.1-6 14.6-9 22q0 0-0.1 0 0.1 0 0.1 0c0.9 1.4 2 2.8 3.1 4 2.5 2.6 5.3 4.6 6.8 5.6 4.1-0.4 17.2-2.2 25.5-9.3 1.8-3.3 4.7-9.1 5.5-14.6zm9-20.1q0-2.5-0.2-4.8c-0.3-5.7-1.1-9.4-1.1-9.5 0 0-6.9-8.1-9.1-10.4-1.7 1.2-4.6 3.3-7.4 5.2-1.4 1-2.8 2-4.1 2.8 0.3 2.2 0.5 7.2 0.6 11.9 0 1.6 0.1 3.2 0.1 4.7 0 1.8 0 3.4 0.1 4.5q0 0.7 0 1.1c0.6 0.5 1.4 1.3 2.3 2.1 3.2 2.8 8 7.1 11 10.4 1.7-0.9 6.6-4.8 6.6-4.8q0.5-2.4 0.7-4.9c0.4-2.9 0.5-5.7 0.5-8.3zm2.6 0.1q-0.1-2.5-0.3-4.9-0.2-1.1-0.4-2.2 0.1 1.1 0.2 2.2 0.1 2.3 0.1 4.9c0 2.9-0.1 6.1-0.6 9.5q-0.2 1.7-0.5 3.4 0.1 0.1 0.1 0.3 0.4-1.7 0.7-3.5 0.8-4.9 0.7-9.7z"/>
		<text id="FOOTBALL CLUB " style="transform: matrix(1,0,0,1,409.014,94.128)" >
			<tspan x="0" y="0" class="t7">FOOTBALL CLUB 
</tspan>
		</text>
		<text id="FOOTBALL CLUB " style="transform: matrix(1,0,0,1,39.26,442.302)" >
			<tspan x="0" y="0" class="t7">FOOTBALL CLUB 
</tspan>
		</text>
		<path class="s2" d="m554 51l-39.4-14.3c-2.6-0.9-6.8-0.9-9.4 0l-39.5 14.3z"/>
		<path id="SVGID_x5F_1_x5F_" fill-rule="evenodd" class="s8" d="m77.7 410.9c0 0 52.3-19.5 124.1 0"/>
		<text id="since 1965" style="transform: matrix(1,0,0,1,-77,-69)" >
			<tspan x="0" y="0" class="t9">since 1965
</tspan>
		</text>
		<path id="SVGID_x5F_00000174569746743283812880000001314842500028713897_x5F_" fill-rule="evenodd" class="s8" d="m401.3 452.1c0 0 106.7-17.6 217.4 1.1"/>
		<text id="FOOTBALL CLUB" style="transform: matrix(1,0,0,1,-77,-69)" >
			<tspan x="0" y="0" class="t10">FOOTBALL CLUB
</tspan>
		</text>
		<text id="YOUTH LEAGUE" style="transform: matrix(1,0,0,1,469.657,402.232)" >
			<tspan x="0" y="0" class="t11">YOUTH LEAGUE
</tspan>
		</text>
		<path id="SVGID_x5F_00000126292500473668601830000001961789195648115111_x5F_" fill-rule="evenodd" class="s8" d="m45.2 99.3c0 0 32.2-55.3 91.9-55.3 59.7 0 88.2 55.3 88.2 55.3"/>
		<text id="FOOTBALL CLUB" style="transform: matrix(1,0,0,1,-77,-69)" >
			<tspan x="0" y="0" class="t12">FOOTBALL CLUB
</tspan>
		</text>
	</g>
</svg>