<svg version="1.0" xmlns="http://www.w3.org/2000/svg" width="1525.333" height="1706.667"
  viewBox="0 0 1144 1280">
  <path
    d="M551.5 33.5c-7.1 1.8-14.9 5.2-36.5 16.3-31.2 16-71.7 35.1-89.5 42.2-6.6 2.7-17.4 7.2-24 10-24.1 10.3-69.6 26.4-99 34.9-10.2 2.9-47.9 11.6-63 14.5-14.9 2.9-76 13.3-82 14-5.7.6-35.5 5.4-45 7.2-23.5 4.5-30 6.9-39.5 14.7-5 4-9.2 11.9-11.6 21.9l-2.6 10.3.7 35c.6 35.9 1.4 57.6 4 114.5.8 17.9 1.9 43.5 2.5 57 1.8 41.3 7.1 107.9 10.1 125 1.1 6.3 2.5 14.2 3 17.5 7.4 44.7 31.1 137.7 47.3 185 6.6 19.6 17.3 47.2 27.3 70.5 16.6 39 53.5 103.9 83.6 147 27.7 39.6 44.3 61.7 59.3 79 15.5 17.8 46.7 49.8 61.4 62.9 71.9 64.1 84.8 74.7 108.9 89.7 6.9 4.3 19.4 12.2 27.6 17.5 21.6 13.9 37 21.3 52.6 25.4l12.8 3.3 10.8-2.8c11.2-2.8 37.2-13.7 46.2-19.3 24.7-15.3 50-31.6 56.7-36.4 10.8-7.7 33.8-26.5 55.4-45.3 9.6-8.4 21.6-18.7 26.5-22.8 17.6-14.9 57.3-55.3 80.1-81.7 17.9-20.7 65.5-87.5 81.6-114.5 22.3-37.5 37.9-65 44.1-78 13.8-29 24.8-56.4 44-109 9.4-25.9 21.2-71.3 36.7-141 11-50 14.1-75 19-156.5.5-9.4 1.5-23.8 2-32 .5-8.3 1.9-35 3-59.5s2.5-53.7 3-65c.6-11.3 1-30.8 1-43.3 0-19.7-.3-24-2.1-31-2.6-10.4-7.2-17.4-15.3-23.1-5.7-4.1-7.4-4.6-26.6-8.9-29.9-6.7-34.9-7.7-75.5-14.2-94.1-15.2-152.6-31.9-233.5-66.8-38.3-16.5-99.3-45.9-119.2-57.4-8.5-4.9-24.4-9.4-32.6-9.2-2.6.1-8.7 1.1-13.7 2.4z" />
</svg>
